<?xml version="1.0" encoding="UTF-8"?> <svg xmlns="http://www.w3.org/2000/svg" id="Layer_1" version="1.1" viewBox="0 0 500 129.771"><defs><style> .st0 { fill: #fae800; } .st1 { fill: #e42517; } .st2 { fill: #f6b900; } .st3 { fill: #f8b400; } .st4 { fill: #981a16; } .st5 { fill: #fff; } </style></defs><path class="st1" d="M334.545,62.012c0-4.015.707-7.865,2.003-11.438h-17.581c-.123.528-.24,1.058-.346,1.592,4.528,2.234,8.356,5.288,11.409,9.121h0c4.056,5.097,6.112,11.18,6.112,18.081,0,.155-.004.308-.009.46-.003.088-.005.176-.007.264-.1,6.455-1.551,12.098-4.326,16.875,5.798,6.006,13.074,10.596,21.25,13.193l10.943-14.671c-16.629-2.231-29.448-16.368-29.448-33.478Z"></path><path class="st2" d="M332.17,26.681v6.407l-12.048,13.344c-.443,1.357-.828,2.739-1.155,4.143h17.581c4.725-13.03,17.291-22.349,32.052-22.349V11.466c-14.277,0-27.179,5.829-36.429,15.215Z"></path><g><g><g><path class="st5" d="M415.244,43.222c1.106-1.184,2.212-2.37,3.314-3.557.725-.78,1.434-1.575,2.17-2.399.214-.242.411-.5.601-.763.395-.55.351-1.166-.114-1.609-.406-.386-.992-.422-1.465-.08l-.247.178c-.5.358-1.016.728-1.498,1.139-2.184,1.858-4.361,3.725-6.523,5.609l-2.733,2.386c-3.461,3.024-7.04,6.152-10.61,9.167-7.352,6.21-14.382,11.707-21.49,16.807-3.655,2.623-7.048,4.836-10.37,6.766-1.756,1.02-3.529,1.939-5.269,2.732-1.174.535-2.577,1.129-4.085,1.473-.825.189-1.839.379-2.856.227-1.065-.16-1.765-.684-2.2-1.647-.322-.713-.5-1.481-.544-2.348-.082-1.64.188-3.239.433-4.448.482-2.381,1.252-4.893,2.356-7.679,1.359-3.43,3.138-6.938,5.442-10.726,2.893-4.756,6.156-8.679,9.975-11.991.206-.178.399-.37.586-.568.136-.145.231-.322.268-.499.019-.09.067-.404-.115-.666-.114-.164-.359-.34-.628-.34l-.129.013c-.209.047-.48.12-.721.277-1.037.672-2.039,1.476-3.062,2.459-1.874,1.801-3.459,3.583-4.845,5.446-3.357,4.513-6.188,9.468-8.414,14.727-1.609,3.802-2.641,7.244-3.157,10.522-.233,1.484-.27,3.019-.109,4.566.113,1.084.46,2.075,1.033,2.947.682,1.039,1.64,1.723,2.846,2.034.963.247,1.942.297,2.933.148,1.509-.228,3.037-.669,4.671-1.347,1.577-.655,3.175-1.42,4.751-2.273,2.973-1.614,6.103-3.55,9.567-5.92,5.129-3.509,10.404-7.461,17.103-12.815,4.888-3.906,10.035-8.254,16.155-13.644-.578.628-1.155,1.256-1.729,1.888-3.348,3.685-6.316,7.104-9.074,10.451-5.029,6.106-9.974,12.678-14.699,19.532-6.271,9.101-12.058,18.47-17.198,27.849-1.676,3.057-2.984,5.631-4.117,8.102-.48,1.046-1.092,2.435-1.565,3.894-.148.457-.249.916-.346,1.387-.051.243-.005.486.041.672.109.437.41.698.803.698.152,0,.311-.042.469-.123.127-.063.213-.149.29-.225l.264-.241-.011-.235c-.028-.543.205-1.107.446-1.638l.405-.901c.461-1.031.938-2.096,1.462-3.108,1.164-2.248,2.706-5.202,4.321-8.115,5.735-10.347,12.22-20.638,19.275-30.587,6.682-9.423,14.14-18.634,22.168-27.377,1.914-2.085,3.846-4.154,5.778-6.224Z"></path><path class="st5" d="M488.291,87.417l-1.116-.089c-.822-.065-1.645-.131-2.47-.194-.317-.023-.636-.037-.954-.038l-4.129-.026c-3.641-.024-7.282-.049-10.924-.05h-.883c-2.146,0-4.09.013-6.098.166-.59-.301-1.134-.692-1.62-1.163-.367-.356-.54-.701-.558-1.11.275-1.196,1.024-2.15,2.288-2.915l.085-.052c.238-.144.477-.289.709-.441.351-.231.511-.725.364-1.124-.148-.399-.575-.7-.992-.7l-.171.017c-.218.044-.438.097-.651.168-2.083.707-4.165,1.416-6.245,2.13-1.072.367-2.04.689-3.032.912-.603.134-1.215.189-1.853.16-.388-.015-.602-.163-.761-.565-.202-.51-.411-1.037-.684-1.538-.435-.798-1.198-1.163-2.179-1.044-.48.058-.932.206-1.343.438l-.225.128c-.68.383-1.383.779-2.047,1.229-1.447.983-2.829,2.111-4.119,3.363.449-.802.917-1.568,1.4-2.293l.193-.29c.25-.374.5-.748.743-1.13.119-.19.096-.387.08-.527v-.214l-.157-.146c-.337-.314-.809-.315-1.196.009-1.147.959-2.455,1.833-3.996,2.673-2.741,1.492-5.482,2.98-8.233,4.453-.411.221-.838.413-1.265.606-.267.121-.534.241-.797.369-.468.225-.983.328-1.529.438l-.118.024c-.48.096-.908.047-1.318-.198l-.032-.066c-.06-.12-.128-.249-.166-.386-.227-.821-.247-1.691-.061-2.663.197-1.032.463-1.848,1.119-2.47.208-.198.319-.455.417-.686.124-.292.09-.63-.091-.903-.196-.297-.557-.52-.976-.475-.35.032-.638.161-.856.386-.131.133-.254.273-.377.414-.113.129-.226.257-.346.38-.072.074-.129.126-.18.162-.006-.009-.012-.016-.018-.025-.467-.701-1.135-1.048-1.666-1.272-.563-.237-1.17-.357-1.969-.389-1.512-.058-3.019.335-4.652,1.212-1.311.703-2.539,1.637-3.65,2.777-.254.261-.503.526-.749.789l-.243.259c-1.57.793-3.272,1.57-5.349,2.443-2.067.868-4.188,1.623-6.305,2.245-.963.283-1.946.486-2.92.602-.554.062-1.103.034-1.659-.095-1.736-.402-1.96-1.85-1.938-2.679.018-.696.192-1.37.517-2.004.013-.025.026-.045.046-.062l.046.015c.16.056.322.112.484.174.405.152.854.189,1.308.123,2.127-.327,3.868-1.381,5.175-3.133.184-.248.318-.525.425-.748.161-.334.222-.71.189-1.15-.034-.453-.24-.845-.592-1.133-.329-.27-.698-.427-1.097-.468-.473-.049-.937.001-1.4.138-2.683.788-4.786,2.383-6.25,4.741-.214.344-.407.746-.574,1.192-.394,1.054-.547,2.009-.468,2.919.219,2.511,1.928,3.821,3.454,4.21.963.246,1.892.298,2.781.162,1.213-.186,2.312-.43,3.358-.743,2.544-.76,5.22-1.835,8.184-3.284l.384-.196c.14-.072.277-.143.415-.21l-.079.254c-.11.344-.219.688-.307,1.037-.17.673-.062,1.344.321,1.994.334.569.845.906,1.478.974.828.088,1.629-.017,2.352-.327.894-.386,1.608-.758,2.248-1.172l.195-.126c.872-.563,1.773-1.147,2.632-1.769,1.082-.784,2.15-1.586,3.22-2.388l1.591-1.19c.037-.027.074-.055.112-.081-.015.116-.03.232-.041.349-.101,1.128.095,2.218.583,3.241.36.755.963,1.196,1.79,1.313,1.313.185,2.504.064,3.573-.364.928-.372,1.833-.743,2.707-1.199l1.097-.57c2.081-1.08,4.227-2.194,6.285-3.424-.675,1.253-1.436,2.723-2.08,4.26-.305.726-.619,1.476-.719,2.304l.03.263c.022.104.044.2.08.287.054.137.128.266.221.385.348.444.959.657,1.574.2.163-.12.348-.256.491-.457.304-.427.587-.869.855-1.32.445-.747,1.049-1.718,1.778-2.591,1.692-2.029,3.728-3.854,6.051-5.424.48-.325,1.011-.613,1.525-.893l.429-.234c.085-.047.207-.081.336-.116l.149-.037.06.084c.057.082.116.162.162.25.078.146.151.295.225.443.135.272.27.544.427.803.396.658,1.018,1.056,1.75,1.118.573.049,1.249.099,1.92.099,1.215,0,2.214-.16,3.145-.504.872-.322,1.756-.613,2.64-.903l.771-.254c-.07.173-.139.346-.207.52-.462,1.185-.277,2.317.552,3.361.107.134.219.264.332.394.034.039.069.079.103.118-.32.097-.645.195-.969.296-1.155.36-2.252.936-3.263,1.712-.858.66-1.506,1.368-1.982,2.162-.217.365-.38.732-.483,1.093-.282.983.151,2.024,1.052,2.534.548.309,1.11.481,1.671.51.284.015.567.023.849.023.853,0,1.617-.077,2.335-.236,1.598-.353,2.958-.842,4.157-1.495.675-.369,1.233-.791,1.708-1.293.869-.92,1.084-2.03.622-3.208-.062-.16-.15-.31-.239-.459-.006-.011-.013-.022-.019-.033.233-.017.468-.028.702-.028,6.808-.011,13.616-.02,20.505-.027l1.025.002c.611,0,1.22-.007,1.827-.041l.237-.013.623-.877-.624-.868ZM462.098,91.328c-.345.436-.817.793-1.53,1.156-1.237.631-2.606,1.058-4.068,1.269-.269.039-.542.05-.816.05h0c-.208,0-.418-.006-.627-.012l-.464-.012c-.164-.003-.344-.076-.563-.221-.026-.029-.057-.117-.063-.124.126-.351.327-.686.614-1.022.455-.531.957-.983,1.492-1.345.764-.518,1.551-.888,2.337-1.103l.251-.069c.722-.2,1.404-.391,2.135-.391.079,0,.159.003.239.008.458.281.795.589,1.087.988.175.241.166.588-.023.827ZM419.508,83.702c-.015.013-.033.029-.055.045l-.619.479c-.557.431-1.114.863-1.681,1.279l-.293.216c-1.42,1.043-2.839,2.087-4.283,3.097-.852.597-1.745,1.117-2.428,1.505-.447.254-.948.448-1.464.64-.123.045-.299.052-.485.058l-.107.006c-.022-.008-.064-.06-.063-.104.008-.514.091-.92.263-1.281l.129-.277c.121-.261.24-.524.392-.766,1.349-2.147,3.16-3.799,5.384-4.907.921-.459,1.814-.696,2.731-.726l.178-.003c.874,0,1.627.213,2.302.653.029.019.062.049.098.085ZM395.642,82.262c-.778,1.139-1.884,1.905-3.383,2.343-.171.049-.372.061-.628.063,1.07-1.218,2.414-2.029,4.011-2.406Z"></path></g><g><path class="st5" d="M377.518,103.221c0-2.558,1.992-4.45,4.709-4.45s4.708,1.881,4.708,4.45-2.003,4.449-4.708,4.449-4.709-1.893-4.709-4.449ZM384.918,103.221c0-1.636-1.155-2.754-2.692-2.754s-2.693,1.118-2.693,2.754,1.156,2.754,2.693,2.754,2.692-1.119,2.692-2.754Z"></path><path class="st5" d="M395.105,100.516v2.274h3.983v1.598h-3.983v3.135h-1.992v-8.605h6.503v1.599h-4.511Z"></path><path class="st5" d="M422.076,98.918l-3.726,8.605h-1.967l-3.713-8.605h2.152l2.619,6.147,2.655-6.147h1.98Z"></path><path class="st5" d="M427.468,98.918h1.992v8.605h-1.992v-8.605Z"></path><path class="st5" d="M444.068,105.175c0,1.487-1.18,2.348-3.442,2.348h-4.45v-8.605h4.205c2.151,0,3.257.898,3.257,2.237,0,.861-.442,1.524-1.143,1.894.959.307,1.574,1.045,1.574,2.126ZM438.155,100.417v2.029h1.979c.971,0,1.499-.344,1.499-1.02s-.529-1.009-1.499-1.009h-1.979ZM442.064,104.966c0-.725-.554-1.069-1.586-1.069h-2.323v2.127h2.323c1.032,0,1.586-.32,1.586-1.058Z"></path><path class="st5" d="M456.923,105.924v1.599h-6.664v-8.605h6.503v1.599h-4.523v1.868h3.995v1.55h-3.995v1.991h4.684Z"></path></g></g><g><path class="st5" d="M134.701,48.979c-.313-.427-.775-.962-1.374-1.605-.601-.643-1.345-1.222-2.235-1.731-.889-.513-1.924-.775-3.102-.813-1.817.063-3.333.734-4.552,2.007-1.215,1.291-1.845,2.836-1.899,4.634.028,1.405.389,2.596,1.086,3.561.687.975,1.535,1.769,2.558,2.418,1.007.636,2.016,1.168,3.016,1.586,1.554.652,3.007,1.377,4.384,2.175,1.358.804,2.472,1.849,3.336,3.134.858,1.301,1.298,3.004,1.323,5.118-.028,2.285-.643,4.257-1.842,5.932-1.19,1.681-2.757,2.994-4.707,3.909-1.94.931-4.055,1.399-6.34,1.418-.877-.022-1.858-.146-2.944-.374-1.089-.218-2.637-.627-3.437-.855.028-1.026.063-6.932,0-8.265.551.785,1.611,2.184,2.298,2.979.681.788,1.485,1.447,2.387,1.988.912.538,1.978.813,3.2.839,1.849-.032,3.412-.665,4.704-1.886,1.285-1.231,1.95-2.855,2.004-4.852.032-1.209-.215-2.222-.744-3.035-.529-.813-1.554-1.697-3.067-2.634-1.519-.931-3.729-2.168-6.638-3.716-1.567-.899-2.69-1.909-3.371-3.032-.671-1.121-1.089-2.168-1.231-3.14-.152-.972-.212-1.687-.18-2.124.022-2.333.557-4.352,1.595-6.074,1.038-1.719,2.437-3.054,4.191-4.004,1.75-.95,3.7-1.424,5.859-1.437,1.174.019,2.251.184,3.213.5.962.313,1.801.646,2.51,1.003-.038.715-.047,1.551-.047,2.52,0,.962.006,1.83.022,2.589.013.756.019,1.181.025,1.269"></path><path class="st5" d="M18.828,45.141l14.085,19.913c1.763,2.539,3.57,5.033,5.432,7.464v-19.441c.006-2.542-.051-4.473-.155-5.811-.104-1.326-.298-2.399-.56-3.219-.266-.813-.643-1.706-1.117-2.69h6.628c-.32.877-.573,1.719-.779,2.513-.196.785-.332,1.747-.411,2.896-.089,1.152-.101,2.703-.051,4.653v22.144c-.009,1.007.044,2.124.142,3.336.104,1.215.339,2.361.7,3.453h-4.248c-.972-1.636-1.988-3.244-3.061-4.821l-19.026-26.085v19.859c0,2.406.079,4.314.203,5.726.13,1.405.291,2.51.491,3.305.193.788.396,1.459.595,2.016h-5.929c.294-1.171.522-2.184.677-3.048.155-.855.269-1.706.323-2.554.06-.836.098-1.801.089-2.899v-20.125c0-1.181-.028-2.292-.07-3.333-.051-1.035-.133-2.067-.228-3.096-.522-.677-1.038-1.304-1.557-1.89-.516-.586-1.187-1.269-1.997-2.051h7.404c.367.677.703,1.253,1.01,1.744.31.478.779,1.165,1.412,2.042"></path><path class="st5" d="M69.88,41.355l-2.814,5.235c-1.07-.411-2.596-.842-4.596-1.276-1.991-.434-4.764-.719-8.296-.848l.095,3.267v11.357h7.135l5.457.098-3.02,5.134c-1.247-.484-2.292-.861-3.156-1.121-.861-.25-1.757-.434-2.69-.554-.937-.108-2.146-.218-3.618-.285l-.256,11.506c-.022.94-.038,1.595-.016,1.981.009.389.07.823.165,1.285,2.757-.063,5.09-.196,7.005-.418,1.921-.215,3.694-.573,5.33-1.07,1.643-.484,3.406-1.168,5.302-2.038l-3.589,6.739h-20.33c.434-.924.801-1.782,1.098-2.583.304-.81.538-1.706.69-2.706.152-.991.237-2.235.237-3.726v-21.378c0-1.399-.12-2.852-.377-4.378-.256-1.516-.668-2.915-1.234-4.222h21.479Z"></path><path class="st5" d="M112.806,50.481l-5.194,18.884c-.519,1.738-1.019,3.605-1.5,5.596-.487,1.988-.94,3.906-1.358,5.758h-2.225l-7.758-26.139-7.999,26.139h-2.671l-8.056-28.266c-.32-1.238-.665-2.368-1.01-3.406-.358-1.045-.848-2.156-1.478-3.355-.636-1.19-1.532-2.634-2.69-4.336h7.806c-.111.358-.196.741-.272,1.162-.082.411-.123.731-.13.959.016.731.136,1.595.37,2.615.234,1.029.506,2.086.82,3.206l6.172,21.926,9.236-29.867,8.841,29.298,5.343-20.843c.355-1.371.614-2.453.775-3.235.171-.779.269-1.535.294-2.263.028-.738.016-1.719-.035-2.956h7.116c-.896,1.121-1.7,2.412-2.425,3.868-.725,1.45-1.386,3.206-1.972,5.258"></path><path class="st5" d="M259.514,41.355l-2.808,5.235c-1.07-.411-2.602-.842-4.596-1.276-2.004-.434-4.767-.719-8.302-.848l.104,3.267v11.357h7.125l5.466.098-3.023,5.134c-1.25-.484-2.301-.861-3.162-1.121-.858-.25-1.754-.434-2.687-.554-.946-.108-2.143-.218-3.615-.285l-.26,11.506c-.025.94-.035,1.595-.022,1.981.022.389.082.823.177,1.285,2.744-.063,5.077-.196,6.998-.418,1.918-.215,3.691-.573,5.327-1.07,1.643-.484,3.403-1.168,5.302-2.038l-3.586,6.739h-20.33c.43-.931.798-1.782,1.102-2.583.301-.81.532-1.706.69-2.706.155-.991.228-2.235.234-3.726v-21.378c.006-1.399-.123-2.852-.38-4.378-.253-1.516-.662-2.915-1.234-4.222h21.479Z"></path><path class="st5" d="M264.131,42.954v1.25h.646c.294.028.544-.009.763-.076.215-.082.339-.272.345-.573-.006-.263-.108-.434-.301-.506-.184-.079-.402-.111-.624-.095h-.829ZM263.495,46.388v-3.928h1.57c.972,0,1.459.377,1.45,1.124-.016.358-.111.611-.313.779-.206.168-.468.263-.782.298l1.187,1.728h-.671l-1.127-1.687h-.677v1.687h-.636ZM261.944,44.429c.006.548.13,1.041.392,1.462.25.44.601.779,1.038,1.032s.937.38,1.478.386c.548-.006,1.035-.133,1.478-.386.44-.253.788-.592,1.045-1.032.253-.421.389-.915.389-1.462,0-.541-.136-1.038-.389-1.466-.256-.434-.605-.775-1.045-1.026-.443-.25-.931-.377-1.478-.377-.541,0-1.041.127-1.478.377s-.788.592-1.038,1.026c-.263.427-.386.924-.392,1.466M261.317,44.429c.003-.646.165-1.219.491-1.719.313-.51.734-.905,1.266-1.196.538-.291,1.127-.437,1.779-.449.652.013,1.25.158,1.773.449.538.291.959.687,1.285,1.196.313.5.478,1.073.487,1.719-.01.646-.174,1.219-.487,1.722-.326.503-.747.905-1.285,1.196-.522.288-1.12.44-1.773.449-.652-.009-1.241-.161-1.779-.449-.532-.291-.953-.693-1.266-1.196-.326-.503-.487-1.076-.491-1.722"></path><path class="st5" d="M178.465,73.069l-3.798,6.9c-.206.18-.513.279-.513.279-1.991.677-4.393,1.057-7.207,1.127-2.956-.041-5.796-.687-7.98-1.924-2.184-1.247-3.991-2.877-5.425-4.89-1.434-2.019-2.497-4.197-3.2-6.543-.712-2.333-1.064-4.621-1.057-6.84.013-3.713.81-7.128,2.39-10.262,1.573-3.13,3.843-5.653,6.799-7.571,2.956-1.909,6.771-2.903,10.92-2.963,1.731.028,3.346.187,4.833.484,1.481.294,2.801.595,3.947.912v6.945c-.535-.544-1.276-1.209-2.206-1.956-.937-.763-2.095-1.434-3.469-2.019-1.377-.595-2.994-.899-4.843-.934-2.453.016-4.438.731-6.482,2.149-2.051,1.415-3.688,3.431-4.928,6.027-1.238,2.599-1.871,5.678-1.905,9.233.022,3.434.611,6.359,1.757,8.787,1.143,2.421,2.694,4.286,4.672,5.568,1.962,1.282,3.925,1.931,6.413,1.95,1.893-.035,3.574-.339,5.03-.931,1.459-.582,2.608-1.114,3.82-1.852,1.291-.788,1.535-.839,2.434-1.674"></path><path class="st5" d="M235.179,41.355l-2.909,5.286c-1.722-.579-3.118-1.022-4.181-1.336-1.07-.307-2.064-.516-3.004-.63-.94-.111-2.073-.161-3.425-.158h-2.029v14.624h7.293l5.603.101-3.089,5.14c-1.285-.491-2.364-.867-3.244-1.127-.886-.244-1.811-.44-2.766-.551-.959-.114-2.288-.209-3.795-.291v9.534c.013,2.254.18,3.976.497,5.188.32,1.222.684,2.295,1.121,3.213h-7.286c.405-1.051.731-2.203,1.007-3.472.256-1.269.389-3.051.399-5.346v-19.853c0-2.032-.079-3.669-.237-4.912-.149-1.25-.364-2.279-.627-3.089-.266-.813-.563-1.592-.902-2.32h21.578Z"></path><path class="st5" d="M195.17,40.252l9.967,23.277c.392.953.962,2.232,1.697,3.839.741,1.614,1.481,3.156,2.203,4.65.734,1.503,1.257,2.605,1.598,3.251.399.734,1.614,2.865,3.187,5.08h-8.584c.146-.76.408-1.662.43-2.01.025-.342.063-.336.092-.551.187-1.586-.478-2.865-.851-4.004s-.747-2.118-1.127-2.956l-2.355-5.596h-13.215l-4.045,9.391c-.63,1.538-1.133,2.573-1.31,3.469-.184.905.054,1.402.019,2.257h-6.91c1.532-1.994,1.456-2.2,2.317-3.643.719-1.2,1.105-1.893,1.763-3.137.845-1.589,1.266-2.485,2.032-4.134.772-1.649,13.092-29.184,13.092-29.184M189.609,61.965h10.521l-5.052-12.151-5.47,12.151Z"></path></g></g><path class="st0" d="M368.599,11.466v16.76c12.196,0,22.889,6.365,28.903,15.925l12.955-10.955c-9.202-13.132-24.517-21.73-41.858-21.73Z"></path><rect class="st0" x="295.078" y="11.289" width="31.912" height="21.274"></rect><rect class="st3" x="263.166" y="11.289" width="31.912" height="21.274"></rect><g><path class="st1" d="M330.962,79.369c0-6.617-1.939-12.361-5.815-17.232-3.871-4.86-8.965-8.377-15.282-10.554-16.367-3.316-26.395,2.493-28.396,3.807l-.007.009,8.652,12.907h4.68c4.444,0,7.801,1.042,10.07,3.12,2.27,2.081,3.404,4.729,3.404,7.942,0,.238-.008.471-.021.702h22.699c.004-.235.015-.465.015-.702Z"></path><path class="st4" d="M299.475,32.565l-18.006,22.825c2.001-1.314,12.029-7.123,28.396-3.807-.012-.004-.024-.009-.036-.013l17.161-19.006"></path><path class="st0" d="M294.794,90.432c-7.608,0-12.649-3.454-15.124-10.361h-.283l-19.341,11.212c2.93,7,7.493,12.293,13.687,15.886,6.192,3.592,13.213,5.39,21.062,5.39.096,0,.189-.005.284-.005v-22.125c-.095.001-.188.004-.284.004Z"></path><path class="st3" d="M308.248,80.071c-.155,2.901-1.282,5.315-3.384,7.241-2.22,2.036-5.485,3.072-9.786,3.116v22.125c9.992-.055,18.456-2.981,25.388-8.788,6.837-5.728,10.325-13.629,10.481-23.694h-22.699Z"></path></g></svg> 